<svg width="319" height="319" viewBox="0 0 319 319" fill="none" xmlns="http://www.w3.org/2000/svg">
<mask id="path-1-outside-1_492_145" maskUnits="userSpaceOnUse" x="-0.00308918" y="-0.00313528" width="319.043" height="319.043" fill="black">
<rect fill="white" x="-0.00308918" y="-0.00313528" width="319.043" height="319.043"/>
<path fill-rule="evenodd" clip-rule="evenodd" d="M23.0363 51.9699L51.9735 23.0327L159.665 130.725L267.357 23.0334L296.294 51.9706L188.603 159.662L296.297 267.356L267.36 296.294L159.665 188.599L51.97 296.294L23.0328 267.357L130.728 159.662L23.0363 51.9699Z"/>
</mask>
<path fill-rule="evenodd" clip-rule="evenodd" d="M23.0363 51.9699L51.9735 23.0327L159.665 130.725L267.357 23.0334L296.294 51.9706L188.603 159.662L296.297 267.356L267.36 296.294L159.665 188.599L51.97 296.294L23.0328 267.357L130.728 159.662L23.0363 51.9699Z" fill="black"/>
<path d="M51.9735 23.0327L63.2872 11.719L51.9735 0.405313L40.6598 11.719L51.9735 23.0327ZM23.0363 51.9699L11.7226 40.6562L0.408931 51.9699L11.7226 63.2836L23.0363 51.9699ZM159.665 130.725L148.352 142.038L159.665 153.352L170.979 142.038L159.665 130.725ZM267.357 23.0334L278.67 11.7197L267.357 0.406005L256.043 11.7197L267.357 23.0334ZM296.294 51.9706L307.607 63.2843L318.921 51.9706L307.607 40.6569L296.294 51.9706ZM188.603 159.662L177.289 148.348L165.975 159.662L177.289 170.975L188.603 159.662ZM296.297 267.356L307.611 278.67L318.925 267.356L307.611 256.043L296.297 267.356ZM267.36 296.294L256.046 307.607L267.36 318.921L278.674 307.607L267.36 296.294ZM159.665 188.599L170.979 177.285L159.665 165.972L148.352 177.285L159.665 188.599ZM51.97 296.294L40.6563 307.608L51.97 318.922L63.2837 307.608L51.97 296.294ZM23.0328 267.357L11.7191 256.043L0.405398 267.357L11.7191 278.671L23.0328 267.357ZM130.728 159.662L142.042 170.975L153.356 159.662L142.042 148.348L130.728 159.662ZM40.6598 11.719L11.7226 40.6562L34.3501 63.2836L63.2872 34.3464L40.6598 11.719ZM170.979 119.411L63.2872 11.719L40.6598 34.3464L148.352 142.038L170.979 119.411ZM256.043 11.7197L148.352 119.411L170.979 142.038L278.67 34.3471L256.043 11.7197ZM307.607 40.6569L278.67 11.7197L256.043 34.3471L284.98 63.2843L307.607 40.6569ZM199.916 170.975L307.607 63.2843L284.98 40.6569L177.289 148.348L199.916 170.975ZM307.611 256.043L199.916 148.348L177.289 170.975L284.984 278.67L307.611 256.043ZM278.674 307.607L307.611 278.67L284.984 256.043L256.046 284.98L278.674 307.607ZM148.352 199.913L256.046 307.607L278.674 284.98L170.979 177.285L148.352 199.913ZM63.2837 307.608L170.979 199.913L148.352 177.285L40.6563 284.981L63.2837 307.608ZM11.7191 278.671L40.6563 307.608L63.2837 284.981L34.3465 256.043L11.7191 278.671ZM119.414 148.348L11.7191 256.043L34.3465 278.671L142.042 170.975L119.414 148.348ZM11.7226 63.2836L119.414 170.975L142.042 148.348L34.3501 40.6562L11.7226 63.2836Z" fill="#FEFFEB" mask="url(#path-1-outside-1_492_145)"/>
<path d="M245.876 34.1035L267.666 12.3137L307.281 51.9283L285.491 73.7182L245.876 34.1035Z" fill="black" stroke="#FEFFEB" stroke-width="16"/>
</svg>
