<svg width="328" height="328" viewBox="0 0 328 328" fill="none" xmlns="http://www.w3.org/2000/svg">
<path d="M163.535 319.035C249.415 319.035 319.035 249.414 319.035 163.535C319.035 77.6551 249.415 8.03467 163.535 8.03467C77.6556 8.03467 8.03516 77.6551 8.03516 163.535C8.03516 249.414 77.6556 319.035 163.535 319.035ZM163.535 68.2847C216.14 68.2847 258.785 110.929 258.785 163.535C258.785 216.14 216.14 258.785 163.535 258.785C110.93 258.785 68.2852 216.14 68.2852 163.535C68.2852 110.929 110.93 68.2847 163.535 68.2847Z" fill="black" stroke="#FEFFEB" stroke-width="16"/>
<path d="M311.035 162.823C310.918 81.6373 244.785 15.9172 163.324 16.0342C81.8628 16.1512 15.9188 82.061 16.0354 163.246M266.785 162.886C266.703 106.056 220.411 60.0524 163.387 60.1343C106.364 60.2162 60.2037 106.352 60.2853 163.183" stroke="#FEFFEB" stroke-width="16"/>
</svg>
